<?xml version="1.0" encoding="UTF-8"?><svg xmlns="http://www.w3.org/2000/svg" width="215mm" height="65mm" viewBox="0 0 609.45 184.25"><defs><style>.cls-1{fill:none;stroke:#e00;}.cls-2{fill:#e00;}</style></defs><g id="MSF_dual_section"><line class="cls-1" x1="148.18" y1="147.2" x2="600.61" y2="147.2"/><g><polygon points="380.91 117.21 377 132.52 376.95 132.52 373.29 117.21 365.96 117.21 359.95 140.75 365.39 140.75 369.22 125.7 369.28 125.7 373.11 140.75 380.35 140.75 386.35 117.21 380.91 117.21"/><path d="M349.47,117.21c-5.11,7.89-10.16,15.86-15.49,23.54h6.8l4.08-6.79h7.27l.4,6.79h6.59c-.78-7.82-1.73-15.82-2.19-23.54h-7.45Zm-1.88,11.81l4.14-6.74h.06l.41,6.74h-4.61Z"/><path d="M394.06,123.53c.32-1.24,2.12-1.67,3.08-1.7,1.83-.04,2.91,.46,4.1,1.2,0,0,1.18-4.66,1.21-4.89-1.93-1.08-4.04-1.35-5.59-1.35-5.53,0-8.4,3.31-8.93,6.1-1.05,5.48,5.48,8.52,4.77,11.04-.52,1.88-2.32,1.98-3.34,1.98-1.74,0-3.39-.56-4.85-1.38l-1.31,5.47c1.75,.61,4.28,1.16,6.29,1.16,6.44,.01,8.5-2.9,9.17-6.12,1.17-5.5-5.39-8.47-4.61-11.52Z"/><path d="M331.12,123.53c.31-1.24,2.12-1.67,3.08-1.7,1.83-.04,2.91,.46,4.1,1.2,0,0,1.52-4.48,1.55-4.71-2.06-1.31-4.38-1.53-5.93-1.53-5.52,0-8.4,3.31-8.93,6.1-1.05,5.48,5.48,8.52,4.78,11.04-.53,1.88-2.32,1.98-3.34,1.98-1.73,0-3.39-.56-4.84-1.38l-1.32,5.47c1.74,.61,4.28,1.16,6.29,1.16,6.45,.01,8.5-2.9,9.18-6.12,1.17-5.5-5.4-8.4-4.61-11.52Z"/></g><g><polygon points="491.75 132.49 491.7 132.49 488.04 117.18 480.71 117.18 474.71 140.7 480.14 140.7 483.99 125.67 484.04 125.67 487.86 140.7 495.1 140.7 501.11 117.18 495.67 117.18 491.75 132.49"/><polygon points="422.59 122.22 431.55 122.22 432.85 117.17 417.69 117.17 411.67 140.7 417.88 140.7 420.25 131.39 427.76 131.39 429.04 126.35 421.54 126.35 422.59 122.22"/><polygon points="520.8 117.17 503.3 117.17 502.01 122.21 507.67 122.21 502.95 140.69 509.16 140.69 513.88 122.21 519.51 122.21 520.8 117.17"/><polygon points="522.98 117.17 516.98 140.71 523.18 140.71 529.19 117.17 522.98 117.17"/><polygon points="543.22 131.38 544.5 126.34 536.74 126.34 537.8 122.21 547.61 122.21 548.91 117.17 532.88 117.17 526.87 140.71 542.89 140.71 544.19 135.65 534.37 135.65 535.46 131.38 543.22 131.38"/><polygon points="582.95 131.38 584.24 126.34 576.29 126.34 577.35 122.21 587.16 122.21 588.45 117.17 572.44 117.17 566.42 140.7 582.44 140.7 583.73 135.64 573.92 135.64 575.01 131.38 582.95 131.38"/><path d="M466.66,116.8c-7,0-12.9,4.38-14.89,12.16-2,7.83,1.67,12.2,8.68,12.2,6.59,0,12.59-3.88,14.78-11.53h0c2.3-8.28-1.56-12.84-8.57-12.84Zm2.52,12.16c-1.02,3.74-3.88,7.05-7.42,7.05-3.75,0-4.72-3.38-3.79-7.01,.92-3.64,3.63-7.06,7.39-7.06s4.69,3.23,3.82,7.02h0Z"/><path d="M595.85,123.49c.35-1.22,2.12-1.68,3.08-1.69,1.83-.04,2.91,.46,4.09,1.2,0,0,1.19-4.65,1.22-4.89-1.93-1.08-4.04-1.35-5.6-1.35-5.52,0-8.4,3.3-8.93,6.09-1.04,5.48,5.48,8.52,4.78,11.04-.53,1.89-2.31,1.98-3.34,1.98-1.73,0-3.38-.56-4.83-1.38l-1.32,5.47c1.74,.61,4.28,1.16,6.29,1.16,6.45,.01,8.51-2.9,9.18-6.12,1.17-5.5-5.46-8.53-4.61-11.52Z"/><path d="M446.04,117.17h-10.52l-6,23.54h5.93l3.2-12.55,2.08,12.55h6.67s-2.16-9.85-2.24-10.34c3.14-.57,5.58-3.37,6.25-6.02,1.2-4.66-.18-7.16-5.37-7.17Zm-.63,7.45c-.47,1.86-1.92,3.09-4.64,3.04h-1.99s1.42-5.54,1.42-5.54h3.05c.89,0,2.81,0,2.17,2.5Z"/><path d="M562.56,117.17h-10.52l-6,23.54h5.93l3.21-12.57,2.08,12.56h6.67s-2.17-9.85-2.24-10.35c3.14-.58,5.58-3.37,6.25-6.02,1.19-4.66-.18-7.16-5.38-7.16Zm-.63,7.44c-.47,1.86-1.91,3.09-4.64,3.04h-1.99s1.42-5.55,1.42-5.55h3.04c.89,0,2.81,0,2.17,2.5Z"/></g><polygon points="236.2 140.71 237.49 135.67 227.68 135.67 228.77 131.41 236.77 131.41 238.05 126.37 230.05 126.37 231.11 122.24 240.92 122.24 242.2 117.19 226.19 117.19 220.19 140.71 236.2 140.71"/><polygon points="194.68 140.71 195.96 135.67 186.15 135.67 187.24 131.41 195.16 131.41 196.45 126.36 188.52 126.36 189.58 122.23 199.39 122.23 200.68 117.19 184.67 117.19 178.66 140.71 194.68 140.71"/><path d="M249.61,141.1c1.13,0,4.23-.37,5.99-.67l1.49-5.44c-1.83,.5-3.71,.95-6.16,.95-3.82,0-4.77-3.37-3.83-7.01,.81-3.15,3.67-7.06,8.51-7.06,1.61,0,3.05,.42,4.47,.95l1.35-5.28c-1.46-.54-3.81-.81-5.54-.81-7.08,0-13.04,4.37-15.05,12.16-2.01,7.83,1.69,12.21,8.77,12.21Z"/><polygon points="264.88 140.71 270.88 117.19 264.68 117.19 258.67 140.71 264.88 140.71"/><polygon points="160.51 123.9 160.57 123.9 160.24 140.71 165.53 140.72 173.91 123.86 173.97 123.86 169.68 140.71 174.93 140.71 180.93 117.2 172.69 117.2 165.37 131.97 165.31 131.97 165.71 117.2 156.97 117.2 150.97 140.71 156.22 140.71 160.51 123.9"/><polygon points="274.02 140.71 277.86 125.69 277.92 125.69 281.74 140.71 288.98 140.71 294.98 117.19 289.55 117.19 285.63 132.5 285.58 132.5 281.92 117.19 274.62 117.19 268.58 140.71 274.02 140.71"/><path d="M220.84,128.93c2.54-9.95-2.85-11.74-5.75-11.74h-11.15l-6,23.53h9.84c6.8,0,11.31-4.94,13.06-11.78Zm-6.21,0c-.89,3.45-3.34,6.74-6.78,6.74h-2.68l3.43-13.44h3.1c3.31,0,4.05,2.33,2.93,6.71Z"/><path d="M302.7,123.53c.32-1.24,2.13-1.67,3.08-1.7,1.83-.04,2.92,.46,4.1,1.19,0,0,1.18-4.65,1.21-4.88-1.92-1.08-4.04-1.35-5.59-1.35-5.53,0-8.4,3.31-8.94,6.1-1.04,5.48,5.49,8.52,4.78,11.04-.53,1.89-2.32,1.98-3.34,1.98-1.74,0-3.39-.56-4.84-1.38l-1.32,5.47c1.74,.61,4.28,1.16,6.29,1.16,6.45,.01,8.49-2.9,9.18-6.11,1.17-5.51-5.41-8.42-4.61-11.52Z"/><g><path class="cls-2" d="M63.46,153.74c1.72-1.01,5.58-3.08,6.05-3.36,.74-.44,1.18-.38,1.2-.16,.09,.88,.07,2.72,1.19,3.1,.32,.11,1.16-.29,1.31-.06,.41,.61,.43,.5,.54,.67,.13,.22,.69,.09,.81,.21,.31,.28-.02,.65,.16,.85,.29,.31,.83-.2,1.1-.14,.5,.1,.62,.66,.54,1.02-.14,.6,.23,1.05,1.2,.24,.51-.43,.54-.21,.98-.43,.26-.13,.69-.12,.88,.07,.19,.18,.48,.5,.75,.61,.41,.15,.84,0,1.09,.1,.38,.15,.39,.71,.72,.75,.32,.05,.65-.58,.85-.39,.58,.55-.49,1.49,.25,1.7,.4,.11,.57-.21,.89-.25,.32-.05,.51-.43,.79-.43s.48,.33,.83,.14c.29-.16,.52-.27,.78-.43,.39-.23,.8-.12,1.02-.3,.27-.22,.07-.83,.88-.68,.83,.16-.13,.92,.23,1.23,.28,.24,.97,0,1.19-.07,.45-.15,.87-.7,1.02-1.08,.19-.46,.88-1.98,1.15-2.39,.28-.42,.97-2.03,1.34-2.59,.37-.55,1.85-2.9,1.98-3.27,.14-.37,.67-.88,.8-1.15,.14-.28,.44-1.2,.81-1.94,.37-.73,1.38-2.21,1.48-2.49,.09-.28,.87-2.07,1.15-2.63,.28-.55,1.25-1.82,1.48-2.42,.23-.6,.87-1.87,.87-1.87l.69-1.15s.23-.51,.55-1.2c.33-.69,1.29-2.17,1.57-2.68,.28-.51,1.06-1.57,1.06-1.57l.6-1.33,.46-1.01s.37-1.2,.55-1.52c.18-.32,.83-1.11,1.01-1.52,.18-.42,.74-2.26,1.02-2.81,.28-.55,1.61-2.95,1.75-3.41,.13-.46,1.52-2.95,1.66-3.45,.14-.51,.18-1.2,.37-1.53,.19-.32,.74-1.15,.83-1.38,.09-.23,1.01-2.44,1.15-2.76,.14-.32,.23-.92,.6-.92s.63,.4,.87,.74c.28,.39,.83,.32,1.15,.64,.32,.32,1.38,1.48,1.43,1.66,.04,.18,.64,.23,.78,.41,.14,.19,.23,.65,.42,.74,.18,.09,1.11,.73,1.29,1.01,.19,.28,.41,.83,.65,1.01,.23,.19,1.29,.83,1.43,1.11,.14,.28,1.66,2.12,1.85,2.44,.19,.32,.32,.88,.46,1.11,.14,.23,.69,.55,.74,.78,.04,.23,.09,1.06,.23,1.29,.13,.23,.78,.51,.87,.74,.09,.23,.37,1.1,.51,1.24,.14,.13,.41,.32,.5,.5,.1,.19,.19,1.2,.33,1.38,.13,.19,.6,.97,.74,1.29,.14,.32,.6,.92,.69,1.15,.09,.23,.14,1.16,.23,1.47,.09,.32,.51,1.02,.55,1.21,.05,.18,.14,.73,.14,.73l.37,.88s.41,.87,.41,1.2,.09,.69,.14,.92c.05,.23,.42,.83,.42,1.01s.51,1.25,.51,1.25c0,0-.1,.92,0,1.15,.09,.23,.5,.87,.5,1.1s-.14,.83-.14,.83l.23,.37s-.14,.5-.05,.69c.09,.18-.09,.6,.05,.74,.14,.14,.51,1.11,.51,1.11-.28,.32-19.51,9.22-27.75,13.06-11.88,5.54-36.57,17.93-39.2,19.45-2.62,1.52-4.28,2.4-4.92,2.07-1.46-.75-3.83-2.86-5.46-7.38-1.37-3.81-1.38-6.98-1.26-8.57,.09-1.22,0-2.13,1.84-3.19,.64-.37,4.03-2.28,5.75-3.29"/><path class="cls-2" d="M29.26,85.64c.1,.21,.5,.16,.79,.24,.17,.04,.47,.33,.66,.36,.19,.02,.46-.07,.56,0,.31,.23,.24,.53,.43,.81,.18,.28,.28,.74,.55,.83,.28,.09,.65,.05,.74,.32,.09,.28-.11,.7,.09,1.06,.52,.91,.07,3.46,.53,3.64,.46,.18,1.85-.27,2.33-.69,.49-.44,1.19-1.22,1.57-1.38,.72-.32,2.1-1.06,2.77-1.2,.66-.14,1-1.23,1.66-1.29,.66-.06,.42-.58,.88-.76,.46-.19,1.33-.66,1.6-.38,.12,.12,.38,.48,.81,.64,.51,.2,1.05-.06,1.14,.5,.14,.83,1.38,.09,1.38,.09,0,0,1.53-.99,2.18-1.27,.64-.28,2.36-1.17,2.36-1.17,0,0,1.36-.7,1.92-.97,20.77-9.97,37.14-15.47,52.18-21.29,23.41-9.07,63.92-19.46,71.63-21.39,.81-.2,2.61-.48,2.83-.61,.22-.13,.58-.22,.77-.96,.19-.74-.37-1.75-.37-2.12s.83-1.84,.92-2.49c.09-.64-.55-.73-.55-.73,0,0,.08-.8-.09-1.38-.17-.58-1.2-1.11-1.38-1.57-.19-.46,0-1.84-.19-2.3-.18-.46-.74-.83-.74-.83,0,0,.13-.24,0-.64-.13-.4-.55-.37-.55-.37,0,0,.17-.88,.09-1.2-.08-.32-.55-.55-.55-.55,0,0-.56-.37-.56-.74s-.09-.65-.37-.83c-.28-.19-1.11-.19-1.38-.28-.28-.09-.92-.28-1.38-.18-.46,.09-.65,.46-1.94,.74-1.29,.28-1.84,0-2.39,.1-.56,.09-1.19,.47-1.85,.64-6.27,1.64-35.03,10.01-56.24,17.98-19.71,7.41-43.2,18.09-57.53,25.53-10.84,5.63-16.63,8.89-19.03,10.38-1.24,.76-2.6,1.67-2.8,2.02-.32,.56-.7,1.42-1.41,1.52-.87,.12-.75,.6-1.02,.67-.32,.08-.7,.43-.97,.69-.27,.26-.17,.62-.07,.83"/><path class="cls-2" d="M118.8,72.78c-.96-.57-.63-1.11,.48-1.59,6.86-2.93,24.18-9.11,34.11-12.26,8.48-2.69,31.9-10.32,38.43-12.2,1.56-.45,2.2-.43,2.89,.31,1.77,1.88,3.49,4.41,5.11,7.55,1.5,2.9,2.79,7.09,3.29,9.73,.37,1.93-.52,2.26-1.56,2.73-7.25,3.24-25.13,11.08-32.57,14.59-7.27,3.43-20.56,9.82-25.06,12.09-1.9,.96-1.59,1.35-2.88-.12-.39-.44-1.02-1.47-1.2-1.75-.19-.28-2.68-2.49-2.95-2.77-.27-.28-1.66-1.94-2.02-2.21-.37-.28-1.57-1.94-1.94-2.12-.37-.18-1-.48-1.27-.76-.28-.28-.76-.86-1.04-1.04-.28-.19-.9-.83-.9-.83l-.85-.78-.74-.83s-.65-.83-1.1-1.01c-.46-.19-1.11-.92-1.29-1.21-.19-.27-1.66-2.12-2.4-2.58-.74-.46-2.51-1.61-2.88-1.89-.37-.27-.86-.56-1.66-1.04"/><path class="cls-2" d="M145.19,98.04c-.71-.71,.2-.81,1.02-1.13,3.03-1.17,21.07-6.81,36.78-10.95,15.65-4.12,38.31-8.82,41.67-9.5,1.42-.29,1.96-.07,2.68,1.09,.83,1.34,2.56,5.81,3.23,9.4,.85,4.57,.04,9.22-.37,10.33-.34,.92-1.62,.99-4.67,1.81-1.83,.5-9.64,2.51-12.84,3.44-3.68,1.07-13.45,3.9-17.06,5.12-4.45,1.52-10.32,3.45-10.32,3.45l-31.08,.53s-.46-2.09-.74-2.28c-.28-.18-.74-1.2-1.02-1.47-.27-.28-.64-1.29-.64-1.29,0,0-.28-1.1-.55-1.29-.28-.18-.94-1.77-1.22-1.96-.28-.18-.9-.99-1.17-1.36-.28-.37-.44-.83-.9-1.2-.46-.37-1.04-1.11-1.41-1.29-.37-.19-.68-.75-1.39-1.46"/><path class="cls-2" d="M107.6,38.13c-.89,.03-1.66,.02-1.87-.24-.12-.15,0-.4-.21-.59-.22-.19-.66-.14-.79-.03-.14,.1-.1,.1-.41,.21-.31,.1-1.49-.31-1.9-.17-.41,.14-1.3,.18-1.59,.04-.3-.15-.35-.96-.87-1.18-.27-.12-1.14-.59-1.41-1.07-.28-.49-1-1.2-1.16-1.55-.16-.34-.39-.9-.5-1.18-.11-.28-.38-.86-.55-1.07-.18-.21-.41-.39-.59-.59-.18-.2-.33-.85-.52-1.14-.09-.14-.31-.44-.41-.66-.11-.22-.1-.47-.21-.73-.11-.25-.42-.62-.49-.86-.07-.24-.17-1.87-.14-3.11,.04-1.25,0-2.35,.14-2.87,.13-.5,.38-.97,.49-1.49,.1-.52,.76-2.21,.93-3.01,.17-.8,.59-2.28,.8-2.8,.2-.52,.76-1.9,1.04-2.35,.27-.45,1.31-2,1.73-2.52,.41-.52,2.32-2.42,2.77-2.77,.45-.35,1.49-1.11,1.83-1.35,.2-.14,1.54-1.08,1.97-1.35,.32-.2,.83-.21,.83-.21l.45-.45s.24-.28,.48-.45c.24-.17,.83-.17,.83-.17,0,0,.67-.53,1.38-.38,.31,.07,.52-.48,.8-.55,.28-.07,1.28-.21,1.42-.07,.14,.14,.31,.31,.87,.42,.55,.1,1.03-.03,1.24,.03,.29,.08,.59,.45,.8,.51,.2,.07,2.73,2.4,3.07,2.98,.12,.2,.15,.58,.21,.69,.1,.2,.54,.47,.69,1.11,.12,.51,.63,.66,.69,1.38,.04,.44,.85,.8,1.07,1.69,.06,.21,.16,1.09,.23,1.23,.07,.14,.25,.19,.36,.5,.1,.31,.17,.76,.14,1.14-.04,.38,.65,1.8,.59,2.66-.07,.87-.24,1.8-.45,2.46-.21,.65-.07,1.9-.21,2.42-.14,.52-.52,1.76-.59,2.14-.07,.38-1.14,3.01-1.31,3.28-.17,.27-.78,1.46-1.06,1.81-.28,.35-2.41,3.31-2.78,3.7-.38,.38-1.33,1.09-1.52,1.38-.25,.39-.46,.85-.72,1.28-.43,.68-1,.17-1.28,.65-.39,.65-1.12,.83-1.25,1.21-.19,.59-.68,1.1-.9,1.28-.51,.43-1.6,.74-2.14,.76"/><path class="cls-2" d="M45.51,129.2s-9.09,3.07-12.72,4.36c-3.44,1.22-7.21,2.55-9.75,3.6-3.08,1.25-8.52,3.47-9.81,3.92-2.03,.71-2.89,.29-3.44-.91-.55-1.2-1.86-3.7-2.6-6.65-.74-2.95-1-5.4-1.04-6.31-.05-.91,.71-2.53,1.82-3.14,1.12-.61,3.75-2.22,5.88-3.45,4.05-2.33,18.02-9.78,26.34-14.08,8.81-4.56,22.7-11.29,30.16-14.98,7.47-3.69,19.73-9.5,21.21-10.14,1.47-.64,3.04-1.38,3.78-1.38s.46,.37,.46,.65-.25,.39-.35,.94c-.09,.55-.03,1.18-.21,1.73-.18,.55-.67,1.08-.76,1.45-.09,.37-.17,1.69-.53,2.14-.37,.46-1.68,3.02-1.96,4.22-.27,1.2-.9,3.16-1.17,3.62-.28,.46-1.15,2.19-1.25,2.74-.09,.55-.69,1.87-.88,2.42-.18,.55-1.29,2.61-1.47,2.97-.19,.37-.92,2.84-1.11,3.2-.18,.37-.92,1.47-.92,1.47l-.37,1.57s-1.01,1.48-1.01,1.75-.74,2.77-1.11,3.32c-.37,.55-2.12,4.51-2.49,5.9-.37,1.38-1.02,3.41-1.2,3.87-.18,.46-1.2,2.12-1.38,2.67-.19,.55-1.02,3.32-1.29,3.87-.28,.55-1.01,2.12-1.01,2.68s-.55,1.75-1.02,2.76c-.46,1.02-1.01,2.77-1.29,3.42-.28,.64-.65,1.09-.74,1.46-.09,.37-.18,1.39-.27,1.67-.09,.28-.28,.74-.28,.74-.46,.22-25.26,10.88-28.76,12.54-3.51,1.66-28.67,13.58-30.24,14.32-1.57,.74-3.65,2.34-5.16,1.32-1.99-1.36-3.88-4.19-5.17-6.7-1.07-2.1-2.23-5.59-2.4-8.11-.21-3.17,1.12-3.76,5.77-6.46,2.28-1.32,20.39-10.87,26.2-13.88,1.65-.85,13.55-7.12,13.55-7.12"/></g></g><g id="translation"><path d="M450.49,166.66c3.14-.58,5.58-3.37,6.25-6.02,1.19-4.66-.18-7.16-5.38-7.16h-10.52l-6,23.54h5.93l4.75-18.6h3.04c.89,0,2.81,0,2.17,2.5-.47,1.86-1.91,3.09-4.64,3.04h-2.2s2.16,13.04,2.16,13.04h6.67s-2.17-9.85-2.24-10.35Z"/><path d="M434.66,163.25l-3.41,13.27c-2.76,.39-5.66,.92-9.47,.92-6.32,0-10.1-4.37-8.09-12.21,2-7.8,8.03-12.18,15.2-12.18,2.72,0,5.65,1,7.93,1.56l-1.39,5.42c-1.85-.81-4.08-1.83-6.26-1.83-4.42,0-8.04,2.79-9.31,7.73-1.12,4.38,.62,6.56,3.94,6.56,.94,0,2.01-.18,2.97-.64l.94-3.67h-2.63l1.27-4.94h8.3Z"/><path d="M504.35,153.48h17.21l-1.32,5.15-13.37,13.34h9.97l-1.3,5.05h-17.8l1.32-5.15,13.28-13.34h-9.29l1.29-5.05Z"/><g><polygon points="491.35 168.79 491.3 168.79 487.65 153.49 480.32 153.49 474.32 177 479.75 177 483.59 161.98 483.65 161.98 487.46 177 494.7 177 500.7 153.49 495.27 153.49 491.35 168.79"/><polygon points="471.2 177 472.49 171.97 462.68 171.97 463.77 167.71 471.77 167.71 473.05 162.67 465.06 162.67 466.11 158.54 475.92 158.54 477.2 153.5 461.2 153.5 455.2 177 471.2 177"/></g><g><polygon points="554.81 168.79 554.76 168.79 551.1 153.49 543.78 153.49 537.78 177 543.21 177 547.05 161.98 547.11 161.98 550.92 177 558.16 177 564.16 153.49 558.72 153.49 554.81 168.79"/><polygon points="534.66 177 535.95 171.97 526.14 171.97 527.23 167.71 535.23 167.71 536.51 162.67 528.52 162.67 529.57 158.54 539.38 158.54 540.66 153.5 524.66 153.5 518.66 177 534.66 177"/></g><path d="M306.85,153.07c-7,0-12.9,4.37-14.88,12.15-2,7.82,1.66,12.2,8.67,12.2,6.59,0,12.58-3.88,14.77-11.51h0c2.3-8.28-1.56-12.84-8.56-12.84Zm2.51,12.15c-1.01,3.75-3.88,7.05-7.41,7.05-3.75,0-4.72-3.38-3.79-7.01,.93-3.64,3.63-7.05,7.38-7.05s4.69,3.23,3.82,7.01h0Z"/><polygon points="376.84 167.69 378.12 162.65 370.36 162.65 371.42 158.52 381.23 158.52 382.52 153.48 366.5 153.48 360.49 177.02 376.51 177.02 377.8 171.95 367.99 171.95 369.08 167.69 376.84 167.69"/><path d="M396.18,153.48h-10.52l-6,23.54h5.93l3.21-12.57,2.08,12.56h6.67s-2.17-9.85-2.24-10.35c3.14-.58,5.58-3.37,6.25-6.02,1.19-4.66-.18-7.16-5.38-7.16Zm-.63,7.44c-.47,1.86-1.91,3.09-4.64,3.04h-1.99s1.42-5.55,1.42-5.55h3.04c.89,0,2.81,0,2.17,2.5Z"/><polygon points="332.08 168.79 332.03 168.79 328.37 153.49 321.05 153.49 315.05 177 320.48 177 324.32 161.98 324.37 161.98 328.19 177 335.43 177 341.43 153.49 335.99 153.49 332.08 168.79"/><path d="M361.26,165.22c2.54-9.94-2.85-11.73-5.75-11.73h-11.13l-6,23.51h9.83c6.79,0,11.3-4.94,13.05-11.78Zm-6.2,0c-.89,3.45-3.34,6.74-6.77,6.74h-2.68l3.42-13.44h3.1c3.3,0,4.05,2.34,2.93,6.7Z"/><path d="M276.37,153.48h17.21l-1.32,5.15-13.37,13.34h9.97l-1.3,5.05h-17.8l1.32-5.15,13.28-13.34h-9.29l1.29-5.05Z"/><g><path d="M131.38,177.02c5.41-7.66,10.55-15.63,15.72-23.54h7.62c.53,7.73,1.52,15.74,2.37,23.54h-6.75l-.44-6.77h-7.44l-4.13,6.77h-6.96Zm18.58-11.72l-.45-6.74h-.06l-4.21,6.74h4.72Z"/><path d="M173.99,166.66c3.14-.57,5.58-3.36,6.25-6.02,1.19-4.65-.18-7.16-5.38-7.16h-10.51l-6,23.52h5.93l4.75-18.58h3.04c.88,0,2.8,0,2.17,2.5-.48,1.85-1.91,3.08-4.64,3.04h-2.19s2.16,13.04,2.16,13.04h6.67s-2.17-9.84-2.24-10.34Z"/><polygon points="201.24 153.5 183.75 153.5 182.46 158.53 188.12 158.53 183.4 177 189.6 177 194.32 158.53 199.95 158.53 201.24 153.5"/><g><polygon points="250.12 168.8 250.07 168.8 246.42 153.51 239.09 153.51 233.09 177.02 238.52 177.02 242.36 162 242.42 162 246.23 177.02 253.47 177.02 259.47 153.51 254.04 153.51 250.12 168.8"/><polygon points="230.3 167.69 231.58 162.65 223.83 162.65 224.88 158.52 234.69 158.52 235.99 153.48 219.97 153.48 213.95 177.02 229.97 177.02 231.27 171.95 221.45 171.95 222.54 167.69 230.3 167.69"/><path d="M208.17,159.8c.32-1.24,2.12-1.67,3.08-1.7,1.83-.04,2.92,.46,4.1,1.2,0,0,1.18-4.65,1.21-4.88-1.92-1.09-4.04-1.35-5.59-1.35-5.53,0-8.4,3.31-8.94,6.1-1.04,5.48,5.49,8.52,4.78,11.04-.53,1.89-2.32,1.98-3.34,1.98-1.74,0-3.39-.56-4.84-1.38l-1.32,5.47c1.74,.61,4.28,1.16,6.29,1.16,6.45,.01,8.49-2.9,9.17-6.11,1.17-5.51-5.41-8.42-4.61-11.52Z"/></g></g></g></svg>